<?xml version="1.0" encoding="UTF-8"?>
<svg xmlns="http://www.w3.org/2000/svg"
     viewBox="20 0 512 480"
     width="512"
     height="512"
 preserveAspectRatio="xMidYMid meet">

<g transform="translate(0,512) scale(0.055,-0.055)"
fill="02478b" stroke="#02478b" stroke-width="350"

>
<path d="M4900 9100 c-897 -49 -1729 -378 -2391 -947 -689 -592 -1151 -1406
-1303 -2298 -44 -260 -51 -353 -51 -685 1 -335 10 -452 60 -726 163 -884 631
-1688 1329 -2278 533 -452 1194 -765 1876 -890 253 -46 415 -60 705 -60 369
-1 624 28 950 109 959 237 1837 859 2378 1686 447 682 666 1458 644 2277 -16
610 -151 1142 -426 1677 -190 372 -416 681 -720 986 -661 661 -1525 1062
-2456 1138 -188 16 -426 20 -595 11z m580 -201 c1091 -99 2056 -639 2704
-1512 766 -1032 937 -2428 445 -3629 -101 -245 -216 -461 -365 -680 -138 -204
-306 -408 -466 -565 l-63 -63 -835 557 c-459 306 -986 655 -1170 776 -184 121
-337 221 -339 223 -4 4 59 98 475 706 154 224 383 559 509 745 127 185 269
395 318 465 73 108 87 135 87 168 0 26 -7 47 -22 64 -21 22 -245 172 -1636
1093 -211 139 -396 260 -412 268 -45 23 -86 19 -119 -12 -16 -16 -226 -316
-467 -668 -353 -516 -871 -1273 -928 -1357 -11 -15 -106 46 -803 510 -436 290
-795 531 -798 534 -11 11 112 287 193 436 91 169 251 411 368 557 110 138 426
455 562 563 368 293 768 509 1196 648 298 96 530 141 916 177 87 9 547 6 650
-4z m-286 -1932 c275 -183 695 -460 932 -617 l431 -285 -85 -125 c-47 -69
-205 -300 -350 -515 -338 -495 -881 -1287 -892 -1298 -4 -5 -18 -3 -31 4 -20
10 -1838 1216 -1847 1224 -2 2 164 248 368 547 204 298 503 735 663 970 161
235 296 428 301 428 4 0 234 -150 510 -333z m-2720 -1264 c1455 -966 2754
-1824 3041 -2010 143 -92 592 -389 998 -660 l738 -493 -2414 0 -2415 0 -70 73
c-345 356 -654 875 -819 1375 -131 399 -187 758 -187 1192 0 412 52 761 169
1138 3 6 6 12 9 12 3 0 430 -282 950 -627z m5131 -3371 c-43 -38 -187 -151
-261 -204 -480 -346 -1011 -572 -1569 -668 -369 -63 -821 -68 -1195 -14 -658
96 -1309 380 -1835 802 -44 36 -87 71 -95 78 -12 12 382 14 2475 14 1369 0
2485 -4 2480 -8z"/>
</g>
</svg>
